@startuml
footer Arnaud Bouvry
' Ortho lines (only vertical and horizontal segments)
'skinparam linetype ortho

' Split into 4 pages
'page 2x2
'skinparam pageMargin 10

skinparam svgLinkTarget _parent
skinparam backgroundColor white


'#############
'# ORGANISM
'#############

package Organism {
class CPlantBox::MappedPlant
class CPlantBox::MappedSegments
class CPlantBox::Plant
class CPlantBox::Organism

CPlantBox::MappedSegments <-- CPlantBox::MappedPlant
CPlantBox::Plant <-- CPlantBox::MappedPlant
CPlantBox::Organism <-- CPlantBox::Plant

esft_organism <-- CPlantBox::Organism

class CPlantBox::MappedRootSystem
class CPlantBox::RootSystem

CPlantBox::MappedSegments <-- CPlantBox::MappedRootSystem
CPlantBox::RootSystem <-- CPlantBox::MappedRootSystem
CPlantBox::Organism <-- CPlantBox::RootSystem
}

CPlantBox::Vector3d <.. CPlantBox::MappedSegments
note on link
minBound
maxBound
resolution
end note


'#############
'# GEOMETRY
'#############

class CPlantBox::Matrix3d
class CPlantBox::Vector3d

CPlantBox::Vector3d <.. CPlantBox::Matrix3d
note on link
r0
r1
r2
end note

@enduml

